<mxfile host="65bd71144e">
    <diagram id="F0clEbLK4a9NRjDxQIpD" name="Page-1">
        <mxGraphModel dx="1231" dy="877" grid="1" gridSize="10" guides="1" tooltips="1" connect="1" arrows="1" fold="1" page="1" pageScale="1" pageWidth="850" pageHeight="1100" math="0" shadow="0">
            <root>
                <mxCell id="0"/>
                <mxCell id="1" parent="0"/>
                <mxCell id="2" value="" style="rounded=0;whiteSpace=wrap;html=1;" vertex="1" parent="1">
                    <mxGeometry x="45" y="30" width="760" height="630" as="geometry"/>
                </mxCell>
                <mxCell id="3" value="&lt;font style=&quot;font-size: 30px;&quot;&gt;One-off setup&lt;/font&gt;" style="text;html=1;strokeColor=none;fillColor=none;align=center;verticalAlign=middle;whiteSpace=wrap;rounded=0;strokeWidth=3;" vertex="1" parent="1">
                    <mxGeometry x="70" y="60" width="260" height="30" as="geometry"/>
                </mxCell>
                <mxCell id="4" value="&lt;font style=&quot;font-size: 30px;&quot;&gt;In-App Operation for every input&lt;/font&gt;" style="text;html=1;strokeColor=none;fillColor=none;align=center;verticalAlign=middle;whiteSpace=wrap;rounded=0;strokeWidth=3;" vertex="1" parent="1">
                    <mxGeometry x="530" y="60" width="260" height="30" as="geometry"/>
                </mxCell>
                <mxCell id="5" value="" style="endArrow=none;html=1;fontSize=30;entryX=0.5;entryY=0;entryDx=0;entryDy=0;exitX=0.5;exitY=1;exitDx=0;exitDy=0;startArrow=none;" edge="1" parent="1" source="15" target="2">
                    <mxGeometry width="50" height="50" relative="1" as="geometry">
                        <mxPoint x="400" y="350" as="sourcePoint"/>
                        <mxPoint x="450" y="300" as="targetPoint"/>
                    </mxGeometry>
                </mxCell>
                <mxCell id="10" style="edgeStyle=none;html=1;entryX=0.5;entryY=0;entryDx=0;entryDy=0;fontSize=14;" edge="1" parent="1" source="7" target="9">
                    <mxGeometry relative="1" as="geometry"/>
                </mxCell>
                <mxCell id="7" value="start" style="ellipse;whiteSpace=wrap;html=1;strokeWidth=3;fontSize=14;" vertex="1" parent="1">
                    <mxGeometry x="250" y="120" width="80" height="40" as="geometry"/>
                </mxCell>
                <mxCell id="12" style="edgeStyle=none;html=1;fontSize=14;" edge="1" parent="1" source="8" target="9">
                    <mxGeometry relative="1" as="geometry"/>
                </mxCell>
                <mxCell id="13" style="edgeStyle=none;html=1;entryX=0;entryY=0.5;entryDx=0;entryDy=0;fontSize=14;" edge="1" parent="1" source="8" target="11">
                    <mxGeometry relative="1" as="geometry"/>
                </mxCell>
                <mxCell id="8" value="IM8 Reform&lt;br&gt;Catalog" style="rounded=0;whiteSpace=wrap;html=1;strokeWidth=3;fontSize=14;" vertex="1" parent="1">
                    <mxGeometry x="60" y="190" width="120" height="60" as="geometry"/>
                </mxCell>
                <mxCell id="14" style="edgeStyle=none;html=1;entryX=0.5;entryY=0;entryDx=0;entryDy=0;fontSize=14;" edge="1" parent="1" source="9" target="11">
                    <mxGeometry relative="1" as="geometry"/>
                </mxCell>
                <mxCell id="9" value="Extract metadata using LLM" style="rounded=0;whiteSpace=wrap;html=1;strokeWidth=3;fontSize=14;" vertex="1" parent="1">
                    <mxGeometry x="230" y="190" width="120" height="60" as="geometry"/>
                </mxCell>
                <mxCell id="17" style="edgeStyle=none;html=1;entryX=0;entryY=0;entryDx=0;entryDy=42.5;entryPerimeter=0;fontSize=14;" edge="1" parent="1" source="11" target="15">
                    <mxGeometry relative="1" as="geometry"/>
                </mxCell>
                <mxCell id="19" style="edgeStyle=none;html=1;entryX=0.5;entryY=0;entryDx=0;entryDy=0;fontSize=14;" edge="1" parent="1" source="11" target="18">
                    <mxGeometry relative="1" as="geometry"/>
                </mxCell>
                <mxCell id="11" value="Generate documents for encoding" style="rounded=0;whiteSpace=wrap;html=1;strokeWidth=3;fontSize=14;" vertex="1" parent="1">
                    <mxGeometry x="230" y="350" width="120" height="60" as="geometry"/>
                </mxCell>
                <mxCell id="16" value="" style="endArrow=none;html=1;fontSize=30;entryX=0.5;entryY=0;entryDx=0;entryDy=0;exitX=0.5;exitY=1;exitDx=0;exitDy=0;" edge="1" parent="1" source="2" target="15">
                    <mxGeometry width="50" height="50" relative="1" as="geometry">
                        <mxPoint x="425" y="660" as="sourcePoint"/>
                        <mxPoint x="425" y="30" as="targetPoint"/>
                    </mxGeometry>
                </mxCell>
                <mxCell id="15" value="vector DB for documents" style="shape=cylinder3;whiteSpace=wrap;html=1;boundedLbl=1;backgroundOutline=1;size=15;strokeWidth=3;fontSize=14;" vertex="1" parent="1">
                    <mxGeometry x="380" y="400" width="90" height="140" as="geometry"/>
                </mxCell>
                <mxCell id="18" value="end" style="ellipse;whiteSpace=wrap;html=1;strokeWidth=3;fontSize=14;" vertex="1" parent="1">
                    <mxGeometry x="240" y="510" width="100" height="50" as="geometry"/>
                </mxCell>
                <mxCell id="23" style="edgeStyle=none;html=1;entryX=0.5;entryY=0;entryDx=0;entryDy=0;fontSize=14;" edge="1" parent="1" source="20" target="21">
                    <mxGeometry relative="1" as="geometry"/>
                </mxCell>
                <mxCell id="20" value="start" style="ellipse;whiteSpace=wrap;html=1;strokeWidth=3;fontSize=14;" vertex="1" parent="1">
                    <mxGeometry x="590" y="120" width="80" height="40" as="geometry"/>
                </mxCell>
                <mxCell id="22" style="edgeStyle=none;html=1;entryX=0.855;entryY=0;entryDx=0;entryDy=4.35;entryPerimeter=0;fontSize=14;" edge="1" parent="1" source="21" target="15">
                    <mxGeometry relative="1" as="geometry"/>
                </mxCell>
                <mxCell id="28" style="edgeStyle=none;html=1;entryX=0.5;entryY=0;entryDx=0;entryDy=0;fontSize=14;" edge="1" parent="1" source="21" target="24">
                    <mxGeometry relative="1" as="geometry"/>
                </mxCell>
                <mxCell id="21" value="Query relevant documents" style="rounded=0;whiteSpace=wrap;html=1;strokeWidth=3;fontSize=14;" vertex="1" parent="1">
                    <mxGeometry x="570" y="190" width="120" height="60" as="geometry"/>
                </mxCell>
                <mxCell id="29" style="edgeStyle=none;html=1;entryX=0.5;entryY=0;entryDx=0;entryDy=0;fontSize=14;" edge="1" parent="1" source="24" target="26">
                    <mxGeometry relative="1" as="geometry"/>
                </mxCell>
                <mxCell id="24" value="Generate output" style="rounded=0;whiteSpace=wrap;html=1;strokeWidth=3;fontSize=14;" vertex="1" parent="1">
                    <mxGeometry x="570" y="390" width="120" height="60" as="geometry"/>
                </mxCell>
                <mxCell id="26" value="end" style="ellipse;whiteSpace=wrap;html=1;strokeWidth=3;fontSize=14;" vertex="1" parent="1">
                    <mxGeometry x="590" y="520" width="80" height="40" as="geometry"/>
                </mxCell>
            </root>
        </mxGraphModel>
    </diagram>
</mxfile>